<?xml version="1.0" encoding="UTF-8"?>
<svg id="Camada_2" data-name="Camada 2" xmlns="http://www.w3.org/2000/svg" viewBox="0 0 793.7 793.7">
  <defs>
    <style>
      .cls-1 {
        fill: none;
      }

      .cls-2 {
        fill: #f4fafe;
      }

      .cls-3 {
        fill: #3fa9de;
      }

      .cls-4 {
        fill: #1d1d1b;
      }

      .cls-5 {
        fill: #e4191d;
      }

      .cls-6 {
        fill: #f4ec7b;
      }

      .cls-7 {
        fill: #7db529;
      }

      .cls-8 {
        fill: #050708;
      }

      .cls-9 {
        fill: #385a26;
      }
    </style>
  </defs>
  <g id="et_crying" data-name="et crying">
    <g>
      <path class="cls-1" d="M637.79,456.41S784.86,31.55,396.85,31.55c-388.01,0-240.94,424.86-240.94,424.86h481.89Z"/>
      <path class="cls-8" d="M637.8,463.11H155.91c-2.86,0-5.4-1.81-6.33-4.51-.74-2.15-18.28-53.35-25.09-120.81-6.34-62.69-3.98-151.33,43.2-217.59,45.06-63.27,122.16-95.36,229.17-95.36s184.11,32.08,229.17,95.36c47.18,66.26,49.54,154.9,43.2,217.59-6.82,67.46-24.35,118.66-25.09,120.81-.93,2.7-3.48,4.51-6.33,4.51ZM160.78,449.71h472.14c9.62-30.75,61-211.09-17.84-321.77-42.4-59.52-115.82-89.7-218.23-89.7s-175.83,30.18-218.23,89.7c-78.84,110.67-27.46,291.01-17.84,321.77Z"/>
    </g>
    <g>
      <ellipse class="cls-7" cx="396.85" cy="278.52" rx="172.01" ry="154.06"/>
      <path class="cls-8" d="M396.85,439.29c-98.54,0-178.71-72.12-178.71-160.76s80.17-160.76,178.71-160.76,178.71,72.12,178.71,160.76-80.17,160.76-178.71,160.76ZM396.85,131.16c-91.15,0-165.31,66.11-165.31,147.36s74.16,147.36,165.31,147.36,165.31-66.11,165.31-147.36-74.16-147.36-165.31-147.36Z"/>
    </g>
    <path class="cls-8" d="M451.66,205.79c0,30.21-24.6,54.81-54.84,54.81s-54.81-24.6-54.81-54.81h20.56c0,18.87,15.36,34.25,34.25,34.25s34.28-15.38,34.28-34.25h20.56Z"/>
    <g>
      <g>
        <path class="cls-6" d="M396.85,573.15c84.65,0,152,14.29,152,14.29,0,0,10.52,44.67-36.13,91.33l-44.87-25.41-71,108.8-71-108.8-44.87,25.41c-46.65-46.65-36.13-91.33-36.13-91.33,0,0,67.35-14.29,152-14.29Z"/>
        <path class="cls-8" d="M396.85,768.85c-2.26,0-4.37-1.14-5.61-3.04l-67.56-103.53-39.39,22.31c-2.63,1.49-5.91,1.04-8.04-1.09-48.73-48.73-38.38-95.63-37.92-97.6.59-2.52,2.59-4.48,5.13-5.02.68-.15,69.01-14.44,153.39-14.44s152.71,14.3,153.39,14.44c2.54.54,4.54,2.49,5.13,5.02.46,1.97,10.82,48.87-37.92,97.6-2.13,2.13-5.42,2.58-8.04,1.09l-39.39-22.31-67.56,103.53c-1.24,1.9-3.35,3.04-5.61,3.04ZM325.85,646.66c2.2,0,4.34,1.08,5.62,3.04l65.39,100.2,65.39-100.2c1.93-2.96,5.83-3.91,8.91-2.17l40.36,22.86c32.2-34.33,32.53-66.12,31.42-77.28-16.4-3.1-75.49-13.26-146.09-13.26s-129.68,10.16-146.09,13.26c-1.11,11.12-.79,42.93,31.43,77.28l40.36-22.86c1.04-.59,2.18-.87,3.3-.87Z"/>
      </g>
      <g>
        <path class="cls-5" d="M455.38,625.52l-22.67-12.84-35.86,54.97-35.86-54.97-22.67,12.84c-23.56-23.56-18.25-46.13-18.25-46.13,0,0,14.37-3.03,36.13-5.17,12.92-.67,26.56-1.07,40.66-1.07s27.77.4,40.71,1.07c21.76,2.14,36.08,5.17,36.08,5.17,0,0,5.31,22.57-18.25,46.13Z"/>
        <path class="cls-8" d="M396.85,674.35c-2.26,0-4.37-1.14-5.61-3.04l-32.42-49.7-17.2,9.74c-2.62,1.48-5.91,1.04-8.04-1.09-25.9-25.9-20.29-51.33-20.04-52.4.59-2.53,2.6-4.49,5.14-5.02.6-.13,14.98-3.13,36.86-5.28.1-.01.21-.02.31-.02,13.83-.72,27.63-1.08,41.01-1.08s27.21.36,41.06,1.08c.1,0,.21.01.31.02,21.88,2.15,36.21,5.16,36.81,5.28,2.54.54,4.54,2.49,5.14,5.02.25,1.07,5.86,26.5-20.04,52.4-2.13,2.13-5.42,2.58-8.04,1.09l-17.2-9.74-32.42,49.7c-1.24,1.9-3.35,3.04-5.61,3.04ZM360.98,605.98c2.2,0,4.34,1.08,5.62,3.04l30.25,46.37,30.25-46.37c1.93-2.96,5.83-3.91,8.91-2.17l18.09,10.24c11.78-13.51,13.45-25.85,13.38-32.05-5.83-1.04-16.63-2.77-30.42-4.14-13.57-.7-27.1-1.05-40.21-1.05s-26.61.35-40.16,1.05c-13.81,1.36-24.63,3.1-30.47,4.14-.07,6.17,1.59,18.52,13.38,32.04l18.09-10.24c1.04-.59,2.18-.87,3.3-.87Z"/>
      </g>
    </g>
    <g>
      <path class="cls-3" d="M600.56,530.47c25.1-44.06,37.24-74.06,37.24-74.06h-240.94s-240.94,0-240.94,0c0,0,12.14,30.01,37.24,74.07,4.06,7.12,11.62,11.54,19.81,11.54h367.76c8.21,0,15.78-4.43,19.84-11.56Z"/>
      <path class="cls-8" d="M580.72,548.73H212.96c-10.56,0-20.39-5.72-25.63-14.93-25.04-43.95-37.13-73.64-37.64-74.88-.83-2.07-.59-4.41.65-6.26,1.25-1.85,3.33-2.96,5.56-2.96h481.89c2.23,0,4.31,1.11,5.56,2.96,1.24,1.85,1.49,4.19.65,6.26-.5,1.24-12.59,30.92-37.63,74.86-5.25,9.22-15.08,14.94-25.66,14.94ZM166.12,463.11c5.41,12.04,16.33,35.06,32.86,64.05,2.87,5.03,8.23,8.16,13.99,8.16h367.76c5.77,0,11.14-3.13,14.02-8.18l5.82,3.32-5.82-3.32c16.52-28.99,27.43-52,32.85-64.04H166.12Z"/>
    </g>
    <g>
      <path class="cls-9" d="M512.72,456.41h-231.73l12.54-54.7c28.76,19.38,64.54,30.88,103.32,30.88s74.54-11.5,103.32-30.88l12.54,54.7Z"/>
      <path class="cls-8" d="M512.72,463.11h-231.73c-2.04,0-3.97-.93-5.24-2.53-1.27-1.6-1.75-3.68-1.29-5.67l12.55-54.7c.49-2.15,2.02-3.92,4.07-4.73,2.05-.81,4.37-.56,6.21.68,28.86,19.45,63.3,29.73,99.58,29.73s70.69-10.28,99.58-29.73c1.83-1.23,4.15-1.48,6.21-.67,2.05.81,3.58,2.58,4.07,4.73l12.55,54.7c.46,1.99-.02,4.08-1.29,5.67-1.27,1.6-3.2,2.53-5.24,2.53ZM289.4,449.71h214.91l-8.54-37.26c-29.34,17.59-63.33,26.83-98.91,26.83s-69.59-9.25-98.91-26.83l-8.54,37.26Z"/>
    </g>
    <g>
      <path class="cls-8" d="M208.46,463.11c-3.7,0-6.7-3-6.7-6.7v-33.65c0-3.7,3-6.7,6.7-6.7s6.7,3,6.7,6.7v33.65c0,3.7-3,6.7-6.7,6.7Z"/>
      <circle class="cls-5" cx="208.46" cy="422.76" r="16.38"/>
    </g>
    <g>
      <path class="cls-8" d="M584.88,463.11c-3.7,0-6.7-3-6.7-6.7v-33.65c0-3.7,3-6.7,6.7-6.7s6.7,3,6.7,6.7v33.65c0,3.7-3,6.7-6.7,6.7Z"/>
      <circle class="cls-5" cx="584.88" cy="422.76" r="16.38"/>
    </g>
    <g>
      <g>
        <path class="cls-4" d="M474.14,376.4c0,4.66-1.74,7.77-4.9,9.78-8.2,5.25-26,3.22-48.24,1.85h-.05c-7.59-.46-15.68-.86-24.1-.86s-16.54.4-24.12.86c-1.66.11-3.32.21-4.93.32-25.11,1.66-43.63,3.4-47.49-7.26-.51-1.37-.75-2.92-.75-4.69,0-5.2,2.14-10.13,6.06-14.63,1.39-1.61,3.03-3.16,4.85-4.66,1.66-1.37,3.51-2.65,5.49-3.89,1.74,1.82,3.86,3.27,6.24,4.15,5.92-3.3,13.32-6.14,21.9-8.2,2.49-.62,5.09-1.15,7.77-1.63.56-2.04.86-4.15.86-6.35,0-.19,0-.38-.03-.56,2.17-.35,4.4-.67,6.67-.88,5.6-.67,11.47-.99,17.48-.99,7.77,0,15.28.56,22.35,1.61,2.28.32,4.5.7,6.67,1.13.03,2.47.43,4.85,1.18,7.1,2.95.64,5.76,1.37,8.42,2.2,6.89,2.06,12.84,4.64,17.66,7.53,2.6,1.53,4.88,3.16,6.81,4.85,2.14-.96,4.1-2.22,5.87-3.75,1.72,1.61,3.19,3.32,4.37,5.09,2.57,3.75,3.97,7.75,3.97,11.9Z"/>
        <path class="cls-8" d="M474.78,359.54c-1.34-1.77-2.87-3.46-4.61-5.09-1.23,1.85-2.71,3.54-4.37,4.96-1.77,1.53-3.73,2.79-5.87,3.75,1.93,1.66,3.51,3.4,4.69,5.17,1.85,2.65,2.81,5.39,2.81,8.07s-.88,3.56-1.8,4.15c-2.76,1.74-8.12,2.33-14.82,2.33-6.19,0-13.56-.48-21.12-.99-2.68-.19-5.44-.38-8.28-.54-.05-.03-.13-.03-.19-.03-7.16-.43-15.63-.86-24.39-.86s-17.34.43-24.55.88l-8.2.54c-17.45,1.15-35.51,2.39-37.5-3.14-.21-.59-.35-1.39-.35-2.36,0-3.35,1.53-6.81,4.4-10.1,1.37-1.61,3.06-3.19,5.07-4.72,1.9-1.47,4.07-2.87,6.49-4.21-2.39-.88-4.5-2.33-6.24-4.15-1.98,1.23-3.83,2.52-5.49,3.89-1.47-1.64-2.71-3.51-3.67-5.52-1.88,1.53-3.59,3.08-5.12,4.72-5.66,6-8.82,12.84-8.82,20.1,0,2.63.4,4.9,1.15,6.97,5.41,14.96,24.52,13.67,50.98,11.9l8.15-.54c6.97-.43,15.25-.86,23.72-.86s16.72.43,23.69.86h.19c2.76.16,5.47.35,8.09.54,20.34,1.34,35.03,2.33,44.01-3.43,3.67-2.33,8.01-6.89,8.01-15.44,0-6-2.14-11.69-6.06-16.86ZM372.69,340.62c.03.19.03.38.03.56,0,2.2-.3,4.32-.86,6.35,2.31-.4,4.66-.75,7.1-1.05,5.63-.67,11.6-1.05,17.88-1.05,8.17,0,15.87.62,22.92,1.77,2.52.38,4.96.83,7.29,1.37-.75-2.25-1.15-4.64-1.18-7.1v-.29c0-.4,0-.8.03-1.18,5.95-.4,11.53-.78,16.62-1.02-6.08-2.06-12.73-3.7-19.83-4.88-8.09-1.34-16.78-2.06-25.84-2.06-8.07,0-15.87.56-23.18,1.66-8.09,1.18-15.65,2.95-22.49,5.28,6.49.29,13.72.86,21.52,1.34,0,.08.03.19,0,.29Z"/>
      </g>
      <g>
        <path class="cls-8" d="M379.36,339.73v-.08c-.3-3.08-2.68-5.55-5.71-5.95-8.09,1.18-15.65,2.95-22.49,5.28,6.49.29,13.72.86,21.52,1.34,0,.08.03.19,0,.29.03.19.03.38.03.56,0,2.2-.3,4.32-.86,6.35-2.68.48-5.28,1.02-7.77,1.63-2.92,5.6-8.79,9.43-15.52,9.43-2.25,0-4.4-.43-6.38-1.23-2.39-.88-4.5-2.33-6.24-4.15-1.98,1.23-3.83,2.52-5.49,3.89-1.47-1.64-2.71-3.51-3.67-5.52-1.88,1.53-3.59,3.08-5.12,4.72,1.1,1.98,2.41,3.81,3.94,5.47,1.5,1.69,3.19,3.22,5.04,4.53,5.04,3.62,11.23,5.71,17.93,5.71,15.2,0,27.87-11.04,30.39-25.52.29-1.72.46-3.48.46-5.31,0-.51,0-.99-.05-1.45Z"/>
        <path class="cls-8" d="M372.72,341.18c0,2.2-.3,4.32-.86,6.35-2.68.48-5.28,1.02-7.77,1.63-8.58,2.06-15.97,4.9-21.9,8.2-2.39-.88-4.5-2.33-6.24-4.15,4.58-2.87,10-5.39,16.05-7.48h.03c6.27-2.2,13.21-3.94,20.66-5.12.03.19.03.38.03.56Z"/>
        <path class="cls-8" d="M372.69,340.32c0,.08.03.19,0,.29-7.45,1.18-14.39,2.92-20.66,5.12h-.03c-6.06,2.09-11.47,4.61-16.05,7.48-1.98,1.23-3.83,2.52-5.49,3.89-1.47-1.64-2.71-3.51-3.67-5.52,1.72-1.34,3.59-2.65,5.58-3.91,1.02-.64,2.06-1.26,3.14-1.88h.03c4.64-2.6,9.89-4.88,15.65-6.81,6.49.29,13.72.86,21.52,1.34Z"/>
        <path class="cls-2" d="M342.19,357.37c5.92-3.3,13.32-6.14,21.9-8.2,2.49-.62,5.09-1.15,7.77-1.63-2.79,10.24-12.17,17.77-23.29,17.77-4.72,0-9.14-1.37-12.87-3.73"/>
      </g>
      <g>
        <path class="cls-2" d="M465,350.16c-2.12-1.55-4.4-3.03-6.89-4.4l6.89,4.4Z"/>
        <path class="cls-8" d="M470.17,354.45c-1.23,1.85-2.71,3.54-4.37,4.96-1.77,1.53-3.73,2.79-5.87,3.75-1.93-1.69-4.21-3.32-6.81-4.85-1.02.19-2.06.29-3.14.29-6.06,0-11.39-3.11-14.53-7.83-2.65-.83-5.47-1.55-8.42-2.2-.75-2.25-1.15-4.64-1.18-7.1v-.29c0-.4,0-.8.03-1.18,5.95-.4,11.53-.78,16.62-1.02-6.08-2.06-12.73-3.7-19.83-4.88-1.93,1.07-3.3,3.06-3.46,5.41,0,.27-.03.54-.03.83-.03.27-.03.56-.03.83,0,2.06.21,4.07.59,6.03,2.81,14.12,15.3,24.79,30.23,24.79,5.23,0,10.24-1.31,14.63-3.67,1.98-1.07,3.83-2.36,5.55-3.83,1.72-1.45,3.27-3.11,4.61-4.96-1.34-1.77-2.87-3.46-4.61-5.09Z"/>
        <path class="cls-8" d="M465.8,359.41c-1.77,1.53-3.73,2.79-5.87,3.75-1.93-1.69-4.21-3.32-6.81-4.85-4.82-2.89-10.77-5.47-17.66-7.53-2.65-.83-5.47-1.55-8.42-2.2-.75-2.25-1.15-4.64-1.18-7.1,5.63,1.13,10.91,2.55,15.79,4.26h.03c7.37,2.55,13.75,5.71,18.87,9.33,1.93,1.37,3.7,2.81,5.25,4.34Z"/>
        <path class="cls-4" d="M470.17,354.45c-1.23,1.85-2.71,3.54-4.37,4.96-1.55-1.53-3.32-2.98-5.25-4.34-5.12-3.62-11.5-6.78-18.87-9.33h-.03c-4.88-1.72-10.16-3.14-15.79-4.26v-.29c0-.4,0-.8.03-1.18,5.95-.4,11.53-.78,16.62-1.02,5.74,1.9,10.96,4.21,15.6,6.78,2.49,1.37,4.77,2.84,6.89,4.4,1.88,1.37,3.59,2.79,5.17,4.29Z"/>
        <path class="cls-2" d="M459.93,363.16c-3.03,1.37-6.41,2.14-9.94,2.14-10.75,0-19.83-7.02-22.94-16.72,2.95.64,5.76,1.37,8.42,2.2,6.89,2.06,12.84,4.64,17.66,7.53,2.6,1.53,4.88,3.16,6.81,4.85Z"/>
      </g>
    </g>
    <circle class="cls-4" cx="382.18" cy="311.69" r="8.68"/>
    <circle class="cls-4" cx="411.59" cy="311.69" r="8.68"/>
    <g>
      <path class="cls-3" d="M548.27,173.06c0,2.23-.19,4.43-.56,6.58h0c-.4.61-.88,1.19-1.41,1.72l-30.92,30.92c-3.64.88-7.37,1.33-11.11,1.33s-7.47-.45-11.11-1.33l-30.92-30.92c-.52-.51-.97-1.06-1.37-1.64-.78-4.41-.78-8.92,0-13.32.4-.58.85-1.13,1.37-1.64l42.03-42.03,42.03,42.03c.53.53,1.01,1.11,1.41,1.71h0c.37,2.16.56,4.36.56,6.59Z"/>
      <path class="cls-8" d="M547.71,166.48h0c-1.34-7.69-4.99-14.77-10.62-20.4l-32.82-32.82-32.83,32.82c-5.74,5.74-9.26,12.87-10.57,20.32-.78,4.4-.78,8.91,0,13.32,1.31,7.45,4.83,14.58,10.57,20.32,6.21,6.21,13.75,10.29,21.72,12.24,3.64.88,7.37,1.33,11.11,1.33s7.47-.45,11.11-1.33c7.96-1.95,15.5-6.03,21.71-12.24,5.63-5.63,9.28-12.71,10.62-20.39h0c.37-2.16.56-4.36.56-6.59s-.19-4.43-.56-6.58ZM480.92,190.56c-4.68-4.67-7.25-10.89-7.25-17.5s2.57-12.83,7.25-17.51l23.35-23.34,23.35,23.34c4.67,4.68,7.25,10.9,7.25,17.51s-2.58,12.83-7.25,17.5c-12.88,12.88-33.82,12.87-46.7,0Z"/>
    </g>
    <path class="cls-8" d="M355.89,278.52c0,30.21-24.6,54.81-54.84,54.81s-54.81-24.6-54.81-54.81h20.56c0,18.87,15.36,34.25,34.25,34.25s34.28-15.38,34.28-34.25h20.56Z"/>
    <path class="cls-8" d="M540.76,278.52c0,30.21-24.6,54.81-54.84,54.81s-54.81-24.6-54.81-54.81h20.56c0,18.87,15.36,34.25,34.25,34.25s34.28-15.38,34.28-34.25h20.56Z"/>
  </g>
</svg>