<?xml version="1.0" encoding="UTF-8"?>
<svg id="Camada_2" data-name="Camada 2" xmlns="http://www.w3.org/2000/svg" viewBox="0 0 793.7 793.7">
  <defs>
    <style>
      .cls-1 {
        fill: #f4fafe;
      }

      .cls-2 {
        fill: #1d1d1b;
      }

      .cls-3 {
        fill: #e4191d;
      }

      .cls-4 {
        fill: #f4ec7b;
      }

      .cls-5 {
        fill: #7db529;
      }

      .cls-6 {
        fill: #050708;
      }
    </style>
  </defs>
  <g id="et_head" data-name="et head">
    <g>
      <ellipse class="cls-5" cx="396.85" cy="396.85" rx="327" ry="292.89"/>
      <path class="cls-6" d="M396.85,702.48c-187.33,0-339.74-137.1-339.74-305.63S209.52,91.22,396.85,91.22s339.74,137.1,339.74,305.63-152.41,305.63-339.74,305.63ZM396.85,116.7c-173.29,0-314.27,125.67-314.27,280.15s140.98,280.15,314.27,280.15,314.27-125.67,314.27-280.15S570.14,116.7,396.85,116.7Z"/>
    </g>
    <circle class="cls-4" cx="566.21" cy="396.85" r="65.79"/>
    <circle class="cls-4" cx="227.49" cy="396.85" r="65.79"/>
    <circle class="cls-4" cx="396.85" cy="258.58" r="65.79"/>
    <g>
      <path class="cls-4" d="M396.85,350.07c-50.45,0-91.49-41.04-91.49-91.49s41.04-91.49,91.49-91.49,91.48,41.04,91.48,91.49-41.04,91.49-91.48,91.49ZM396.85,180.71c-42.94,0-77.88,34.94-77.88,77.88s34.94,77.88,77.88,77.88,77.88-34.94,77.88-77.88-34.94-77.88-77.88-77.88Z"/>
      <path class="cls-6" d="M396.85,362.81c-57.47,0-104.23-46.75-104.23-104.22s46.75-104.23,104.23-104.23,104.23,46.76,104.23,104.23-46.75,104.22-104.23,104.22ZM396.85,193.45c-35.92,0-65.14,29.22-65.14,65.14s29.22,65.14,65.14,65.14,65.14-29.22,65.14-65.14-29.22-65.14-65.14-65.14Z"/>
    </g>
    <circle class="cls-3" cx="396.85" cy="258.58" r="29.42"/>
    <g>
      <path class="cls-4" d="M566.21,488.34c-50.45,0-91.49-41.04-91.49-91.49s41.04-91.49,91.49-91.49,91.48,41.04,91.48,91.49-41.04,91.49-91.48,91.49ZM566.21,318.97c-42.94,0-77.88,34.94-77.88,77.88s34.94,77.88,77.88,77.88,77.88-34.94,77.88-77.88-34.94-77.88-77.88-77.88Z"/>
      <path class="cls-6" d="M566.21,501.07c-57.47,0-104.22-46.75-104.22-104.22s46.75-104.22,104.22-104.22,104.23,46.75,104.23,104.22-46.75,104.22-104.23,104.22ZM566.21,331.71c-35.92,0-65.14,29.22-65.14,65.14s29.22,65.14,65.14,65.14,65.14-29.22,65.14-65.14-29.22-65.14-65.14-65.14Z"/>
    </g>
    <circle class="cls-3" cx="566.21" cy="396.85" r="29.42"/>
    <path class="cls-6" d="M227.51,292.6c-57.48,0-104.25,46.78-104.25,104.25s46.78,104.2,104.25,104.2,104.2-46.72,104.2-104.2-46.72-104.25-104.2-104.25ZM227.51,461.97c-35.92,0-65.17-29.2-65.17-65.12s29.25-65.12,65.17-65.12,65.12,29.2,65.12,65.12-29.2,65.12-65.12,65.12Z"/>
    <circle class="cls-3" cx="227.49" cy="396.85" r="29.42"/>
    <g>
      <g>
        <path class="cls-2" d="M543.8,536.43c0,39.54-65.78,71.59-146.95,71.59s-146.95-32.05-146.95-71.59c0-8.87,3.31-14.78,9.32-18.6,15.59-9.99,49.42-6.11,91.72-3.52h.1c14.42.87,29.81,1.63,45.81,1.63s31.44-.76,45.86-1.63c3.16-.2,6.32-.41,9.38-.61,47.74-3.16,82.95-6.47,90.29,13.81.97,2.6,1.43,5.55,1.43,8.92Z"/>
        <path class="cls-6" d="M396.85,620.76c-89.55,0-159.69-37.04-159.69-84.33,0-16.26,8.28-24.93,15.23-29.35,17.09-10.95,45.02-9.09,83.69-6.5,4.98.33,10.12.68,15.39,1,.12,0,.23,0,.33.01,13.26.8,28.97,1.61,45.05,1.61s31.84-.81,45.1-1.61l15.5-1.02c50.28-3.38,86.63-5.81,96.91,22.6,1.46,3.92,2.18,8.28,2.18,13.25,0,47.29-70.14,84.33-159.69,84.33ZM294.24,524.11c-12.75,0-22.91,1.1-28.14,4.45-1.77,1.12-3.46,2.64-3.46,7.87,0,27.84,55.12,58.85,134.21,58.85s134.21-31.02,134.21-58.85c0-1.86-.21-3.36-.63-4.48-3.79-10.48-38.11-8.18-71.29-5.95l-15.61,1.03c-13.69.82-29.89,1.66-46.68,1.66s-32.75-.83-46.33-1.64c-.13,0-.25,0-.36-.02-5.4-.33-10.67-.68-15.78-1.03-14.37-.96-28.36-1.9-40.14-1.9Z"/>
      </g>
      <g>
        <path class="cls-1" d="M442.76,515.95c0,25.32-20.53,45.86-45.91,45.86s-45.86-20.53-45.86-45.86c0-.56,0-1.12.05-1.63,14.42.87,29.81,1.63,45.81,1.63s31.44-.76,45.86-1.63c.05.51.05,1.07.05,1.63Z"/>
        <path class="cls-6" d="M396.85,574.55c-32.31,0-58.6-26.29-58.6-58.6,0-.99.02-1.97.11-2.87.66-6.82,6.54-11.92,13.44-11.48,13.26.8,28.97,1.61,45.05,1.61s31.84-.81,45.1-1.61c6.89-.39,12.78,4.66,13.44,11.48.08.9.11,1.88.11,2.87,0,32.31-26.31,58.6-58.65,58.6ZM365.95,527.89c4.8,12.38,16.84,21.18,30.9,21.18s26.13-8.8,30.94-21.18c-19.43.92-42.37.92-61.84,0Z"/>
      </g>
      <g>
        <path class="cls-1" d="M350.99,515.95c0,25.32-20.59,45.86-45.91,45.86s-44.89-19.52-45.86-43.97c15.59-9.99,49.42-6.11,91.72-3.52.05.51.05,1.07.05,1.63Z"/>
        <path class="cls-6" d="M305.08,574.55c-31.61,0-57.34-24.69-58.59-56.21-.18-4.52,2.05-8.79,5.86-11.23,17.15-10.98,45.08-9.12,83.73-6.52,5.06.34,10.28.69,15.64,1.02,6.24.38,11.29,5.25,11.9,11.48.08.9.11,1.88.11,2.87,0,32.31-26.31,58.6-58.65,58.6ZM273.39,525.8c4.17,13.56,16.77,23.27,31.69,23.27s27.24-9.63,31.56-22.91c-.76-.05-1.51-.1-2.26-.15-24.43-1.63-47.77-3.2-60.99-.21Z"/>
      </g>
      <g>
        <path class="cls-1" d="M542.37,527.52c-5.15,19.72-23.13,34.29-44.48,34.29-25.32,0-45.86-20.53-45.86-45.86,0-.76,0-1.53.05-2.24,47.74-3.16,82.95-6.47,90.29,13.81Z"/>
        <path class="cls-6" d="M497.89,574.55c-32.31,0-58.6-26.29-58.6-58.6,0-1.07,0-2.13.08-3.13.44-6.35,5.51-11.4,11.87-11.83l6.2-.41c48.41-3.25,86.63-5.81,96.91,22.6.88,2.42,1,5.06.35,7.55-6.74,25.8-30.1,43.81-56.81,43.81ZM466.19,525.54c4.12,13.6,16.77,23.54,31.71,23.54,13.4,0,25.31-7.99,30.5-19.96-7.91-6.61-34.68-5.38-62.2-3.58Z"/>
      </g>
    </g>
    <circle class="cls-2" cx="368.95" cy="459.9" r="16.51"/>
    <circle class="cls-2" cx="424.87" cy="459.9" r="16.51"/>
  </g>
</svg>